v 0.892721 0.209436 0.46506
v -0.258959 0.344817 0.862302
v 0.903153 0.2026 0.343165
v -0.413052 0.357321 0.797155
v 0.881509 0.154658 0.228363
v -0.55809 0.323885 0.724915
v 0.627497 0.268661 0.292422
v -0.297958 0.377449 0.611634
v 0.710226 0.292592 0.390865
v -0.215229 0.401381 0.710077
v 0.780832 0.256245 0.494231
v -0.144623 0.365034 0.813442
v 0.697356 0.254839 0.559231
v -0.0224448 0.339453 0.807508
v 0.548411 0.283567 0.512399
v 0.013703 0.346422 0.696832
v 0.41366 0.26014 0.450003
v 0.00234631 0.308491 0.591875
v 0.370356 0.136212 0.608525
v 0.164699 0.160387 0.679461
v 0.5092 0.181595 0.634294
v 0.139018 0.225111 0.761979
v 0.678884 0.200915 0.622641
v 0.0413456 0.275858 0.842543
v 0.74494 0.131446 0.662597
v 0.0251387 0.216059 0.910873
v 0.634515 0.0602845 0.699441
v 0.0998064 0.12314 0.883874
v 0.524688 -0.0277762 0.691189
v 0.113374 0.0205744 0.833061
v 0.783843 -0.136773 0.632052
v -0.141613 -0.0279845 0.951263
v 0.832584 -0.0247036 0.656662
v -0.0928716 0.0840849 0.975874
v 0.846543 0.0858453 0.636974
v -0.0789124 0.194634 0.956185
v 0.940304 0.0860426 0.568426
v -0.211375 0.221424 0.965667
v 0.989257 -0.0206827 0.530207
v -0.326948 0.134039 0.984197
v 0.992537 -0.133258 0.469549
v -0.447062 0.0359686 0.966101
v 1.02843 -0.00845965 0.301183
v -0.616825 0.184942 0.868671
v 1.01818 0.0712782 0.398467
v -0.46255 0.24534 0.909207
v 0.951367 0.140836 0.495172
v -0.282575 0.285888 0.920789
v 0.971937 0.149638 0.501471
v -0.282569 0.297107 0.93418
v 0.96314 0.0889673 0.579646
v -0.209104 0.226766 0.983981
v 0.866506 0.0891085 0.661585
v -0.0589491 0.197897 0.980796
v 0.752353 0.141793 0.685833
v 0.0531191 0.223989 0.927015
v 0.673748 0.218347 0.644501
v 0.0773435 0.288455 0.850215
v 0.700238 0.276938 0.572622
v 0.00100376 0.359134 0.813805
v 0.843417 0.204012 0.592674
v -0.0820381 0.3128 0.911886
v 0.791732 0.283011 0.499154
v -0.133723 0.3918 0.818365
v 0.911024 0.224112 0.466436
v -0.261219 0.361911 0.870771
v 0.37849 0.0623327 0.816269
v 0.407268 0.17114 0.816267
v 0.0515911 0.891699 0.112399
v 0.186684 0.651438 0.368352
v 0.235491 0.561559 0.461872
v 0.0141131 0.952199 0.0434883
v 0.279105 -0.0101272 0.712902
v 0.306113 -0.153539 0.796579
v -0.334271 -1.11602 0.299441
v -0.632308 -1.05854 -0.104176
v -0.759628 -0.673351 -0.399506
v -0.577282 -0.0272568 -0.384739
v 0.348534 0.379986 0.221991
v -0.186174 0.442841 0.406424
v 0.425129 0.556095 0.0197481
v -0.397499 0.652796 0.303492
v 0.401769 0.743954 -0.160417
v -0.523687 0.852742 0.158795
v 0.339971 0.863409 -0.315176
v -0.626619 0.977033 0.0182241
v 0.267551 0.905579 -0.336818
v -0.596208 1.00711 -0.0388868
v 0.0859548 0.966192 -0.264507
v -0.387058 1.0218 -0.101354
v -0.139652 1.02076 -0.178009
v 0.65004 0.288448 0.125431
v -0.50164 0.42383 0.522673
v 0.941711 0.186847 0.105671
v -0.72411 0.382667 0.680253
v 1.19144 -0.0444502 0.0760672
v -0.988526 0.211808 0.827989
v 1.41187 -0.165724 0.332599
v -0.850355 0.100204 1.1129
v 1.25294 -0.163868 0.454132
v -0.618545 0.0561267 1.09965
v 1.04015 -0.178122 0.666651
v -0.255488 -0.0258173 1.11355
v 0.890109 -0.239017 0.872658
v 0.0469164 -0.139898 1.16349
v 0.678271 -0.16924 0.937296
v 0.266957 -0.120889 1.07917
v 0.484023 0.0106603 0.832193
v 0.319498 0.0300005 0.888942
v 0.610472 0.0687206 0.75163
v 0.178594 0.119488 0.900595
v 0.522193 0.15202 0.695531
v 0.193141 0.190701 0.809029
v 0.548411 0.283567 0.512399
v 0.013703 0.346422 0.696832
v 0.726256 0.290708 0.360536
v -0.260897 0.406749 0.701029
v 0.87352 0.217302 0.317178
v -0.42212 0.369606 0.764076
v 1.06915 0.0877253 0.320871
v -0.576105 0.281127 0.888359
v 1.12144 0.00304583 0.382688
v -0.564949 0.201283 0.964363
v 1.10297 -0.0396597 0.459488
v -0.480588 0.14649 1.00569
v 0.930882 -0.0250397 0.611349
v -0.200233 0.107924 1.0015
v 0.729157 0.00428243 0.737225
v 0.0710549 0.0816433 0.96422
v 0.0266666 0.956333 0.0582551
v 0.184222 0.904155 0.0381328
v -0.103698 0.938 0.137443
v 0.145086 0.97607 -0.0540131
v -0.163401 1.01233 0.0523914
v 0.0492224 1.00978 -0.0685626
v -0.115303 1.02912 -0.0118138
v -0.0404498 1.02032 -0.0500325
v 0.202363 0.537405 0.427418
v 0.213081 0.49127 0.456951
v 0.344491 0.481432 0.40592
v 0.0771384 0.51286 0.498136
v 0.357825 0.541568 0.35098
v 0.0287741 0.580249 0.464478
v 0.283141 0.589614 0.324415
v 0.0569173 0.616207 0.402445
v 0.718404 0.314069 0.29083
v -0.330449 0.437363 0.652604
v 1.00492 0.173808 0.225975
v -0.619774 0.364793 0.78637
v 1.1765 0.03023 0.255074
v -0.736113 0.25506 0.914778
v 1.28292 -0.0664221 0.390723
v -0.670824 0.163243 1.06462
v 1.26856 -0.0422963 0.48446
v -0.541221 0.170446 1.1087
v 1.02432 -0.0584618 0.725935
v -0.127356 0.0769196 1.12318
v 0.912707 -0.0846073 0.866361
v 0.0900792 0.0120937 1.1501
v 0.772237 -0.0400484 0.911093
v 0.237528 0.0228073 1.09553
v 0.579035 0.111681 0.834148
v 0.311682 0.143109 0.926365
v 0.435229 0.487593 0.469112
v 0.106178 0.526274 0.58261
v 0.381775 0.667772 0.149534
v -0.173501 0.733045 0.341062
v 0.342983 0.840617 -0.0453982
v -0.31512 0.917977 0.181597
v 0.314129 0.911322 -0.141091
v -0.385105 0.993517 0.100092
v 0.225232 0.966647 -0.205658
v -0.391739 1.03917 0.00714992
v 0.128154 0.989279 -0.183582
v -0.303725 1.04005 -0.0346165
v -0.0871731 1.03142 -0.11402
v 0.257174 0.340239 0.565237
v 0.330476 0.241871 0.693214
v 0.823965 -0.0236897 0.696835
v -0.0397947 0.0778464 0.994767
v 0.515735 0.25936 0.564588
v 0.0838566 0.310128 0.713553
v 0.50014 0.216317 0.627996
v 0.150524 0.257414 0.748587
v 0.203569 0.879443 0.0542745
v -0.104918 0.915706 0.160679
v 0.232684 0.713345 0.23444
v 0.0270266 0.73752 0.305376
v 0.129855 0.725432 0.269908
v 0.1587 0.63229 0.338819
v 0.323673 0.601679 0.355322
v 0.0768848 0.630689 0.440446
v 0.39897 0.570389 0.376966
v 0.0493542 0.611487 0.497557
v 0.385025 0.493495 0.436828
v 0.0971052 0.52734 0.536139
v 0.294744 0.498499 0.473672
v 0.191917 0.510586 0.509139
v 0.251534 0.59333 0.471717
v 0.318805 0.534937 0.475046
v 0.195411 0.549442 0.517608
v 0.378236 0.53356 0.448844
v 0.131448 0.56257 0.533967
v 0.388697 0.594034 0.407295
v 0.100777 0.62788 0.506606
v 0.325337 0.601483 0.39195
v 0.11968 0.625658 0.462886
v 0.211179 0.64295 0.402807
v 0.379116 0.460533 0.113487
v -0.299551 0.540312 0.347575
v 0.378989 0.522253 0.298791
v -0.0528898 0.573021 0.447756
v 0.379163 0.572718 0.247398
v -0.0938496 0.628321 0.410551
v 0.366395 0.417153 0.163504
v -0.250576 0.489679 0.376312
v -0.035918 1.00857 -0.0401882
v 0.0280448 0.995438 -0.0565471
v -0.0953494 1.00994 -0.0139855
v 0.118769 0.967944 -0.0335275
v -0.128019 0.996954 0.0515957
v 0.151714 0.919195 0.0255372
v -0.0950742 0.948206 0.11066
v -0.0293024 0.918036 -0.000810863
v 0.108299 0.885032 -0.018762
v -0.13849 0.914042 0.0663612
v 0.0747409 0.917025 -0.0729054
v -0.172048 0.946035 0.0122178
v -0.00342948 0.948651 -0.0811576
v -0.126824 0.963156 -0.038596
v -0.0673926 0.96178 -0.0647993
v 0.569252 0.219412 0.629951
v 0.116807 0.272598 0.78601
v 0.566548 0.258997 0.578558
v 0.0729706 0.317017 0.748805
v 0.83094 0.0203648 0.6736
v -0.0533864 0.124319 0.978625
v 0.756699 0.0459215 0.706897
v 0.0368985 0.130535 0.955173
v 0.945276 0.0405822 0.624741
v -0.165273 0.171129 1.0078
v 1.06533 0.0040313 0.482143
v -0.415397 0.178093 0.992882
v 1.07291 0.0424072 0.427203
v -0.469517 0.223722 0.959224
v 1.03029 0.109122 0.366763
v -0.491567 0.288019 0.891689
v 0.895145 0.22037 0.378416
v -0.359362 0.367839 0.811125
v 0.765571 0.280477 0.41468
v -0.221583 0.396519 0.755173
v 0.609509 0.293213 0.536213
v 0.0131052 0.363321 0.741927
v 0.602195 0.159445 0.675625
v 0.129182 0.215048 0.838779
v 0.665985 0.0958512 0.71066
v 0.110709 0.161125 0.902188
v 0.676869 0.0889619 0.675409
v 0.0598983 0.161488 0.888217
v 0.607328 0.142013 0.653766
v 0.0931862 0.202451 0.831105
v 0.619177 0.264028 0.524197
v -0.0183616 0.338972 0.744099
v 0.76208 0.252839 0.419602
v -0.225074 0.36888 0.760095
v 0.868825 0.201025 0.38551
v -0.344553 0.343659 0.804033
v 0.988551 0.0971992 0.385872
v -0.451048 0.266426 0.882424
v 1.01923 0.0431081 0.426624
v -0.440939 0.214753 0.930271
v 1.00938 0.0106083 0.476643
v -0.389084 0.175 0.959008
v 0.917295 0.0326525 0.608599
v -0.172687 0.160781 0.98456
v 0.75504 0.0573348 0.683661
v 0.0146747 0.144366 0.939031
v 0.818999 0.0329882 0.653911
v -0.0653276 0.136942 0.958936
v 0.576214 0.229813 0.566542
v 0.0415052 0.292668 0.750976
v 0.581791 0.189891 0.604544
v 0.0676497 0.250329 0.781883
v 0.44407 -0.063176 0.702625
v 0.15615 -0.0293307 0.801935
v 0.621237 -0.224239 0.796509
v 0.107096 -0.163801 0.973848
v 0.797696 -0.278639 0.732666
v -0.0866303 -0.174685 1.03769
v 0.928832 -0.22674 0.55699
v -0.346242 -0.0768538 0.996793
v 1.1153 -0.220612 0.364954
v -0.67392 -0.010287 0.982098
v 1.23537 -0.223508 0.26253
v -0.862332 0.0230801 0.986078
v 1.0777 -0.0927832 0.0664391
v -0.958308 0.146552 0.768706
v 0.829609 0.0822261 0.0657146
v -0.753949 0.268375 0.611921
v 0.622485 0.213154 0.115587
v -0.529194 0.348536 0.512828
v 0.216107 -0.5805 0.826112
v -0.000723311 -0.880361 0.648915
v -0.733793 -0.373476 -0.468416
v -0.245025 0.376836 -0.0943323
v -0.214542 0.939811 -0.246918
v -0.241849 0.73547 -0.212464
v -0.189304 0.544179 -0.0795655
v -0.190097 0.454521 -0.0500325
v 0.990026 -0.362952 -0.126537
v -1.25163 -0.0994417 0.646665
v 0.958366 -0.493858 -0.139929
v -1.30386 -0.22793 0.640367
v 0.572208 -0.689673 -0.381477
v -1.4638 -0.450338 0.32079
v 0.0358568 -0.940756 -0.298671
v -1.17752 -0.798122 0.119852
v 0.764499 -0.123281 -0.240689
v -1.16868 0.103967 0.426109
v 0.402438 -0.192909 -0.373733
v -1.16056 -0.00917729 0.165381
v 0.323237 -0.458465 -0.488535
v -1.36315 -0.260228 0.0931403
v -0.213978 -0.608475 -0.458497
v -1.0983 -0.504521 -0.153472
v 0.239208 0.398446 0.00599516
v -0.377763 0.470972 0.218803
v 0.0513704 0.358822 -0.102076
v -0.421642 0.414425 0.0610771
v 0.191525 0.64526 -0.260019
v -0.569405 0.734708 0.00244369
v 0.206434 0.497661 -0.104464
v -0.451668 0.575021 0.122531
v 0.194315 0.801998 -0.395884
v -0.669444 0.903534 -0.0979527
v -0.0277304 0.693472 -0.232006
v -0.397913 0.736987 -0.104321
v 0.0100044 0.52636 -0.0920145
v -0.319047 0.565041 0.0214831
v -0.00497049 0.875909 -0.316479
v -0.436849 0.926677 -0.167514
v 0.254466 0.362996 0.0721547
v -0.321374 0.430687 0.270776
v 0.285764 0.348098 0.134767
v -0.269512 0.413371 0.326295
v 0.311916 0.328195 0.192458
v -0.222792 0.391051 0.376891
v 0.0375747 0.276302 -0.160563
v -0.517701 0.341575 0.0309646
v -0.10956 -0.0710191 -0.421075
v -0.891057 0.0208468 -0.151518
v -0.180309 -0.376833 -0.511266
v -1.0852 -0.270462 -0.199147
v 0.361089 -1.05752 0.177404
v -0.831721 -0.917304 0.588833
v 0.584965 -0.904333 0.413668
v -0.607846 -0.764117 0.825097
v 0.762911 -0.650386 0.55641
v -0.4299 -0.510169 0.967838
v 0.806621 -0.279688 0.469187
v -0.406757 -0.137054 0.88771
v 1.06052 -0.292706 0.215697
v -0.852086 -0.0678763 0.875402
v 0.914718 -0.34849 0.253336
v -0.751102 -0.152671 0.827918
v 0.848343 -0.682866 0.264556
v -0.838045 -0.484629 0.846231
v 1.05951 -0.556233 0.14932
v -1.0382 -0.309645 0.872868
v 0.915913 -0.752515 0.0311884
v -1.18179 -0.505927 0.754736
v 0.697339 -0.878276 0.13658
v -0.989049 -0.680039 0.718255
v 0.512347 -0.985549 -0.0652284
v -1.17404 -0.787312 0.516447
v 0.733799 -0.848905 -0.170621
v -1.3639 -0.602318 0.552927
v 0.286947 -0.807597 -0.364685
v -1.33775 -0.616612 0.19571
v 0.0494877 -0.532866 -0.471742
v -1.22559 -0.382979 -0.0319392
v 0.806342 -0.593787 -0.215716
v -1.35306 -0.339947 0.529112
v 0.347803 0.0715498 -0.121256
v -0.721614 0.197261 0.247611
v 0.135243 -0.144673 -0.373083
v -0.995872 -0.0117087 0.0170656
v 0.900973 -0.683444 -0.218104
v -1.44352 -0.407846 0.590567
v 0.660131 -0.183935 -0.440543
v -1.37588 0.0553999 0.261724
v 0.88734 -0.384539 -0.664499
v -1.8479 -0.0630078 0.278949
v 1.18456 -0.604591 -0.739995
v -2.18822 -0.208116 0.423355
v 1.35929 -0.810242 -0.599641
v -2.19858 -0.392011 0.627552
v 1.25943 -0.933131 -0.428307
v -1.98996 -0.551162 0.692482
v 1.04474 -0.806924 -0.283322
v -1.64937 -0.490228 0.64594
v 1.03176 -0.743693 -0.304386
v -1.64178 -0.429415 0.617782
v 1.19791 -0.852977 -0.431637
v -1.92808 -0.485513 0.64659
v 1.2474 -0.763433 -0.570471
v -2.08424 -0.371794 0.578693
v 1.11424 -0.596324 -0.678541
v -2.07344 -0.221607 0.420967
v 0.910615 -0.415322 -0.606809
v -1.80406 -0.0962091 0.329546
v 0.74736 -0.250284 -0.425993
v -1.4326 0.00597364 0.325929
v 0.938796 -0.643014 -0.25198
v -1.48796 -0.357746 0.585065
v 0.90749 -0.650553 -0.341374
v -1.58096 -0.358033 0.516951
v 0.781496 -0.344049 -0.47051
v -1.54243 -0.0708685 0.331066
v 0.891077 -0.485949 -0.625122
v -1.84416 -0.164418 0.318326
v 1.06221 -0.629473 -0.682667
v -2.06378 -0.262009 0.39556
v 1.16922 -0.754243 -0.605505
v -2.08016 -0.372274 0.515285
v 1.12382 -0.82183 -0.503298
v -1.96103 -0.459201 0.560742
v 0.975355 -0.737064 -0.396532
v -1.71875 -0.420368 0.532731
v 0.820718 -0.573039 -0.25589
v -1.40038 -0.311946 0.510219
v 0.735298 -0.523732 -0.365553
v -1.46523 -0.265056 0.393463
v 0.609809 -0.452885 -0.379306
v -1.38506 -0.218386 0.308773
v 0.689806 -0.45668 -0.412602
v -1.46959 -0.20284 0.332226
v 0.700263 -0.407423 -0.467542
v -1.52083 -0.146331 0.298567
v 0.650068 -0.379085 -0.473044
v -1.48877 -0.127662 0.264691
v 0.675225 -0.247414 -0.296208
v -1.23738 -0.0225839 0.363497
v 0.591276 -0.29364 -0.371416
v -1.30077 -0.0712279 0.281195
v 0.599116 -0.350657 -0.341883
v -1.29293 -0.128244 0.310728
v 0.734096 -0.501152 -0.288752
v -1.36361 -0.254565 0.434795
v 0.832814 -0.580071 -0.341158
v -1.51168 -0.304473 0.467513
v 0.794543 -0.609228 -0.380535
v -1.54995 -0.33363 0.428136
v 0.619206 -0.409113 -0.502576
v -1.51963 -0.157691 0.235158
v 0.679683 -0.43866 -0.500621
v -1.56198 -0.17515 0.272581
v 0.666962 -0.482041 -0.450604
v -1.513 -0.225783 0.301318
v 0.589231 -0.484123 -0.412385
v -1.42621 -0.247205 0.282788
v 0.714719 -0.554969 -0.398632
v -1.50638 -0.293876 0.367477
v 0.955382 -0.762763 -0.447924
v -1.77986 -0.441232 0.495525
v 1.109 -0.842525 -0.549769
v -2.01699 -0.475061 0.528459
v 1.16694 -0.782023 -0.6506
v -2.14414 -0.392802 0.491469
v 1.06507 -0.652249 -0.722841
v -2.12262 -0.277532 0.376668
v 0.865355 -0.522191 -0.663124
v -1.89045 -0.198243 0.287418
v 0.747757 -0.384959 -0.500042
v -1.57617 -0.111778 0.301534
v 0.877235 -0.675044 -0.389221
v -1.63178 -0.380106 0.476198
v 0.753145 -0.52022 -0.464212
v -1.59135 -0.244622 0.344458
v 0.796102 -0.497222 -0.519948
v -1.67178 -0.207119 0.331284
v 0.875917 -0.573919 -0.528634
v -1.75649 -0.264475 0.379347
v 0.848387 -0.59312 -0.471522
v -1.6812 -0.295764 0.400991
v 0.923062 -0.663603 -0.471739
v -1.75048 -0.349324 0.450429
v 0.955738 -0.639396 -0.523928
v -1.82063 -0.31303 0.433708
v 1.02937 -0.67049 -0.538911
v -1.89096 -0.327202 0.46838
v 1.01665 -0.713871 -0.488894
v -1.84198 -0.377835 0.497117
v 0.920246 -0.887651 -0.41622
v -1.77386 -0.570955 0.513042
v 1.18636 -0.986247 -0.538766
v -2.10415 -0.599443 0.59621
v 1.32162 -0.845081 -0.670723
v -2.27738 -0.422014 0.570658
v 1.15882 -0.674488 -0.81817
v -2.29622 -0.268344 0.373555
v 0.783853 -0.501392 -0.758021
v -1.95138 -0.179861 0.185427
v 0.551491 -0.32823 -0.565768
v -1.52564 -0.0840603 0.150685
v 0.755313 -0.756073 -0.312204
v -1.50691 -0.490145 0.468092
